<svg id="Layer_1" data-name="Layer 1" xmlns="http://www.w3.org/2000/svg" viewBox="0 0 154.5 21.28"><title>Logo-Jetmaster</title><path d="M16.42,10.88c-.93,3.59-1.5,6.48-5.2,8.92A10.12,10.12,0,0,1,6,21.07c-2.94,0-6.78-1.15-5.79-5C.65,14.15,2.07,12.55,4,12.55a2.1,2.1,0,0,1,2.22,2.8,4,4,0,0,1-3.16,3,.76.76,0,0,0-.73.68c-.14.53.64.65,1,.65,2.15,0,3.94-1.95,4.49-4.1a3.53,3.53,0,0,0-.23-2.88l3-11.84H7.93L8.14,0,21.21,0,21,.83H19Z" style="fill:#231f20"/><path d="M33.42,14.58c1.4-5.26-1.15-8.39-6-8.4a10.07,10.07,0,0,0-9.82,7.45c-.91,3.51.26,5.6,2.36,6.67a9.2,9.2,0,0,0,4.38.81,10.39,10.39,0,0,0,8-3.76L31.94,17c-1.62,1.72-3.85,3.12-5.92,3.11-2.59,0-2.53-1.87-1.92-4.25l.32-1.25Zm-8.82-.73,1.06-4.1c.23-.92.59-2.86,1.87-2.86,1.49,0,.8,1.82.53,2.86l-1,4.11Z" style="fill:#231f20"/><path d="M46,1.39,44.65,6.62h3.16l-.18.71H44.47l-2.69,10.5c-.17.65-.45,1.52.39,1.52,1.42,0,2.61-2.44,3-3.6h.61c-1.35,4.17-3.92,5.38-7.53,5.38-3.38,0-4-1-3-4.89l2.29-8.92H36l.18-.71c3.47,0,6.77-2.19,9.31-5.22Z" style="fill:#231f20"/><path d="M48.66,7.35l.18-.72c2.55,0,5.19-.26,7.75-.34L55.8,9.35c1.63-1.75,3.63-3.12,5.72-3.11,1.82,0,3.29.92,3.18,3a8.32,8.32,0,0,1,5.54-3c3.24,0,3.9,1.67,2.8,6L71,20h1.53l-.18.72-8.86,0,.19-.71h.83l2.25-8.75c.21-.8,1-2.79-.2-2.79-.87,0-1.78,1.48-2.14,2.85L62.24,20h.83l-.18.71H54.73l.19-.72h.83L58,11.14c.38-1.49.74-2.68-.18-2.68S56,9.89,55.73,11.08L53.43,20h.76l-.18.72-8.78,0,.19-.71H47L50.2,7.35Z" style="fill:#231f20"/><path d="M85,12.79H83.6a22.5,22.5,0,0,0-3.36.23c-4,.56-5.55,2.58-6.06,4.55-.67,2.64,1.31,3.63,3.43,3.63a8.5,8.5,0,0,0,6-2c.3,1.67,1.46,2.06,3,2.06a7.24,7.24,0,0,0,4.84-1.87l.27-1c-.43.36-.82.77-1.35.77-.36,0-.37-.39-.29-.71l2-8C92.7,8.16,91.75,7.3,90,6.85a21.61,21.61,0,0,0-4.89-.57c-6.26,0-7.45,1.92-7.79,3.23-.45,1.75,1.1,2.35,2.47,2.35s3.8-.32,4.33-2.37c.34-1.34-.6-1.7-.5-2.09s.7-.32,1.2-.32c1.29,0,1.47.48,1.13,1.82Zm-1,3.69c-.28,1.1-.68,3-2.21,3-1.12,0-.65-1.61-.43-2.47.35-1.37.67-3.48,2.4-3.47h1Z" style="fill:#231f20"/><path d="M93.93,15.78a5.63,5.63,0,0,0,5.27,4.74c.83,0,2-.14,2.25-1.27.38-1.46-1.76-1.85-3.77-2.72s-3.92-2.15-3.08-5.42A6.66,6.66,0,0,1,101,6.3a8.8,8.8,0,0,1,3.65.9l2.41-.89h.62l-1.14,5.09h-.64c-.37-2.26-2.06-4.38-4.5-4.38a1.8,1.8,0,0,0-2,1.39c-.28,1.07,1.28,1.55,1.93,1.82l2.7,1.17c1.73.74,2.5,2.56,1.92,4.82a6.78,6.78,0,0,1-2.82,4,8,8,0,0,1-4.4,1,11.48,11.48,0,0,1-3.27-1L93,21.23H92.2l1.2-5.45Z" style="fill:#231f20"/><path d="M119,1.51,117.6,6.75h3.16l-.18.71h-3.16L114.73,18c-.17.65-.45,1.52.39,1.52,1.42,0,2.61-2.44,3-3.6h.61c-1.35,4.17-3.92,5.38-7.53,5.38-3.38,0-4-1-3-4.89l2.3-8.92h-1.65l.18-.72c3.46,0,6.77-2.19,9.31-5.22Z" style="fill:#231f20"/><path d="M135.84,14.75c1.41-5.26-1.14-8.39-6-8.4A10.07,10.07,0,0,0,120,13.8c-.9,3.51.27,5.6,2.37,6.67a9.13,9.13,0,0,0,4.37.81,10.41,10.41,0,0,0,8-3.76l-.44-.39c-1.61,1.72-3.84,3.12-5.91,3.11-2.6,0-2.54-1.87-1.93-4.25l.32-1.25ZM127,14l1.05-4.1c.24-.92.6-2.86,1.88-2.86,1.48,0,.79,1.82.53,2.86L129.43,14Z" style="fill:#231f20"/><path d="M138.74,7.5l.18-.72c2.68,0,5.46-.26,8.17-.34l-.77,3h.05a6.8,6.8,0,0,1,5.26-2.94c1.84,0,3.3,1.17,2.75,3.31a4.41,4.41,0,0,1-4.16,3.48c-1.84,0-2.8-1.29-2.29-3.28a7.28,7.28,0,0,1,.53-1.4c-.23-.74-1.5,1-1.66,1.25a12.11,12.11,0,0,0-1.2,3.45l-1.75,6.84h2l-.18.71-10.34,0,.18-.71H137L140.22,7.5Z" style="fill:#231f20"/></svg>